<svg width="36" height="36" viewBox="0 0 36 36" fill="none" xmlns="http://www.w3.org/2000/svg">
<path fill-rule="evenodd" clip-rule="evenodd" d="M16.6227 12.2857C16.6227 14.6571 14.8091 16.5714 12.5455 16.5714C10.2818 16.5714 8.45455 14.6571 8.45455 12.2857C8.45455 9.91429 10.2818 8 12.5455 8C14.8091 8 16.6227 9.91429 16.6227 12.2857ZM27.5318 12.2857C27.5318 14.6571 25.7182 16.5714 23.4545 16.5714C21.1909 16.5714 19.3636 14.6571 19.3636 12.2857C19.3636 9.91429 21.1909 8 23.4545 8C25.7182 8 27.5318 9.91429 27.5318 12.2857ZM12.5455 19.4286C9.36818 19.4286 3 21.1 3 24.4286V28H22.0909V24.4286C22.0909 21.1 15.7227 19.4286 12.5455 19.4286ZM22.1318 19.5C22.6091 19.4571 23.0591 19.4286 23.4545 19.4286C26.6318 19.4286 33 21.1 33 24.4286V28H24.8182V24.4286C24.8182 22.3143 23.7136 20.7 22.1318 19.5Z" fill="#0281D1"/>
</svg>
