<svg width="36" height="36" viewBox="0 0 36 36" fill="none" xmlns="http://www.w3.org/2000/svg">
<path d="M15.6227 12.2857C15.6227 14.1537 14.2092 15.5714 12.5455 15.5714C10.8774 15.5714 9.45455 14.1492 9.45455 12.2857C9.45455 10.4222 10.8774 9 12.5455 9C14.2092 9 15.6227 10.4178 15.6227 12.2857ZM26.5318 12.2857C26.5318 14.1537 25.1183 15.5714 23.4545 15.5714C21.7865 15.5714 20.3636 14.1492 20.3636 12.2857C20.3636 10.4222 21.7865 9 23.4545 9C25.1183 9 26.5318 10.4178 26.5318 12.2857ZM4 24.4286C4 23.9463 4.22289 23.4614 4.73951 22.9623C5.26446 22.4551 6.03701 21.9928 6.96788 21.6026C8.83321 20.8206 11.088 20.4286 12.5455 20.4286C14.0029 20.4286 16.2577 20.8206 18.123 21.6026C19.0539 21.9928 19.8265 22.4551 20.3514 22.9623C20.868 23.4614 21.0909 23.9463 21.0909 24.4286V27H4V24.4286ZM25.8182 24.4286C25.8182 22.8799 25.3137 21.5718 24.5178 20.4853C25.8838 20.6196 27.5765 20.9924 29.0321 21.6026C29.963 21.9928 30.7355 22.4551 31.2605 22.9623C31.7771 23.4614 32 23.9463 32 24.4286V27H25.8182V24.4286Z" fill="white" stroke="#546E7A" stroke-width="2"/>
</svg>
