<svg width="36" height="36" viewBox="0 0 36 36" fill="none" xmlns="http://www.w3.org/2000/svg">
<path fill-rule="evenodd" clip-rule="evenodd" d="M18.0008 7.6003L17.9998 7.60029L17.9987 7.6003V7.60028L17.9583 7.6C17.3074 7.6 16.6758 7.81512 16.1635 8.21009L16.1635 8.21014L8.72504 13.9439L8.7247 13.9442C8.02631 14.4819 7.61488 15.3022 7.6004 16.1725L8.62105 24.1975C8.69219 24.7569 8.71841 24.9379 8.78007 25.1243C8.84271 25.3137 8.91124 25.4408 9.13738 25.8428C9.58484 26.6383 9.81381 26.8652 10.1742 27.2222L10.1946 27.2424C10.468 27.5134 10.9622 27.749 11.556 27.9142C12.134 28.075 12.6894 28.1372 12.9789 28.1372H13.0805V25.1557C13.0805 24.4572 13.277 23.4452 13.9133 22.5618C14.6083 21.5969 15.7524 20.9017 17.3356 20.9017H18.6632C19.3616 20.9017 20.3737 21.098 21.2572 21.7339C22.2224 22.4285 22.9183 23.5724 22.9183 25.1557V28.1372H23.0206C23.3101 28.1372 23.8655 28.075 24.4435 27.9142C25.0373 27.749 25.5315 27.5134 25.8049 27.2424L25.8253 27.2222C26.1857 26.8652 26.4147 26.6383 26.8621 25.8428C27.0883 25.4408 27.1568 25.3137 27.2194 25.1243C27.2811 24.9379 27.3073 24.7569 27.3785 24.1975L28.3991 16.1725C28.3846 15.3022 27.9732 14.4819 27.2748 13.9442L27.2745 13.9439L19.836 8.21014L19.836 8.21009C19.3237 7.81512 18.6921 7.6 18.0412 7.6L18.0008 7.60028V7.6003ZM22.8018 29.7372H23.0206C23.4708 29.7372 24.1708 29.6508 24.8723 29.4557C25.5582 29.2649 26.3678 28.9372 26.9312 28.3788C27.376 27.938 27.7086 27.6017 28.2567 26.6272L28.2775 26.5901C28.4783 26.2333 28.6228 25.9766 28.7385 25.6268C28.8543 25.2766 28.8974 24.937 28.958 24.4599L28.9657 24.3994L29.9931 16.321C29.9974 16.2875 29.9995 16.2538 29.9995 16.22C29.9995 14.8328 29.3532 13.5253 28.2513 12.6767L28.2509 12.6764L20.8129 6.94297H18.0008H17.9987H15.1866L7.74858 12.6764L7.74823 12.6767C6.6463 13.5253 6 14.8328 6 16.22C6 16.2538 6.00213 16.2875 6.00639 16.321L7.03384 24.3994L7.04152 24.4599C7.10209 24.937 7.14519 25.2766 7.26101 25.6268C7.37673 25.9766 7.52117 26.2333 7.72198 26.5901L7.74285 26.6272C8.29095 27.6017 8.6235 27.938 9.0683 28.3788C9.63175 28.9372 10.4414 29.2649 11.1272 29.4557C11.8287 29.6508 12.5287 29.7372 12.9789 29.7372H13.197C13.2343 29.8291 13.2798 29.9168 13.3327 29.9993H14.6805V25.8206C14.6805 24.5881 14.6805 23.9719 14.9428 23.5116C15.1204 23.1998 15.3787 22.9416 15.6904 22.764C16.1507 22.5017 16.7669 22.5017 17.9994 22.5017C19.2319 22.5017 19.8481 22.5017 20.3084 22.764C20.6201 22.9416 20.8783 23.1998 21.056 23.5116C21.3183 23.9719 21.3183 24.5881 21.3183 25.8206V29.9993H22.6661C22.719 29.9168 22.7645 29.8291 22.8018 29.7372ZM18.0008 6.94295H17.9987L15.1867 6.94292C15.9799 6.33136 16.9552 6 17.9583 6L17.9987 6.0002H18.0008L18.0412 6C19.0443 6 20.0196 6.33136 20.8128 6.94292L18.0008 6.94295Z" fill="#546E7A"/>
</svg>
