<svg width="36" height="36" viewBox="0 0 36 36" fill="none" xmlns="http://www.w3.org/2000/svg">
<path fill-rule="evenodd" clip-rule="evenodd" d="M21.4679 29.9321V26.0257C21.4679 24.7504 21.4679 24.1127 21.1877 23.6408C21.0169 23.3529 20.7765 23.1126 20.4887 22.9417C20.0167 22.6616 19.3791 22.6616 18.1038 22.6616C16.8285 22.6616 16.1908 22.6616 15.7189 22.9417C15.431 23.1126 15.1907 23.3529 15.0199 23.6408C14.7397 24.1127 14.7397 24.7504 14.7397 26.0257V29.9321H13.0131C12.5628 29.9321 11.8589 29.8455 11.1525 29.649C10.4609 29.4567 9.65224 29.1282 9.09215 28.5733C8.64181 28.1271 8.30802 27.7899 7.75196 26.7995L7.7318 26.7636L7.73179 26.7636C7.52999 26.4043 7.38757 26.1508 7.27377 25.8063C7.15987 25.4615 7.11737 25.1268 7.05651 24.6476L7.04914 24.5896L6.006 16.3902C6.002 16.3588 6 16.3272 6 16.2955C6 14.9085 6.64646 13.6012 7.74874 12.7527L15.2881 6.94285L15.2882 6.9428C16.0815 6.33133 17.057 6 18.0604 6L18.102 6.00019L18.1441 6C19.1474 6 20.1229 6.33133 20.9163 6.9428L20.9163 6.94285L28.4557 12.7527C29.558 13.6012 30.2045 14.9085 30.2045 16.2955C30.2045 16.3272 30.2025 16.3588 30.1985 16.3902L29.1553 24.5896L29.1479 24.6476C29.0871 25.1268 29.0446 25.4615 28.9307 25.8063C28.8169 26.1508 28.6745 26.4043 28.4727 26.7636L28.4727 26.7636L28.4525 26.7995C27.8964 27.7899 27.5626 28.1271 27.1123 28.5733C26.5522 29.1282 25.7436 29.4567 25.052 29.649C24.3455 29.8455 23.6416 29.9321 23.1913 29.9321H21.4679Z" fill="#0281D1"/>
</svg>
